<svg width="506" height="99" viewBox="0 0 506 99" fill="none" xmlns="http://www.w3.org/2000/svg">
<path d="M4.13281 1.875L16.7188 31.9922L29.3516 1.875H33.1953V36H30.3125V21.1406L30.5469 5.90625L17.8438 36H15.6172L2.96094 6.02344L3.19531 21.0469V36H0.3125V1.875H4.13281ZM57.1953 36C56.9141 35.2031 56.7344 34.0234 56.6562 32.4609C55.6719 33.7422 54.4141 34.7344 52.8828 35.4375C51.3672 36.125 49.7578 36.4688 48.0547 36.4688C45.6172 36.4688 43.6406 35.7891 42.125 34.4297C40.625 33.0703 39.875 31.3516 39.875 29.2734C39.875 26.8047 40.8984 24.8516 42.9453 23.4141C45.0078 21.9766 47.875 21.2578 51.5469 21.2578H56.6328V18.375C56.6328 16.5625 56.0703 15.1406 54.9453 14.1094C53.8359 13.0625 52.2109 12.5391 50.0703 12.5391C48.1172 12.5391 46.5 13.0391 45.2188 14.0391C43.9375 15.0391 43.2969 16.2422 43.2969 17.6484L40.4844 17.625C40.4844 15.6094 41.4219 13.8672 43.2969 12.3984C45.1719 10.9141 47.4766 10.1719 50.2109 10.1719C53.0391 10.1719 55.2656 10.8828 56.8906 12.3047C58.5312 13.7109 59.375 15.6797 59.4219 18.2109V30.2109C59.4219 32.6641 59.6797 34.5 60.1953 35.7188V36H57.1953ZM48.3828 33.9844C50.2578 33.9844 51.9297 33.5312 53.3984 32.625C54.8828 31.7188 55.9609 30.5078 56.6328 28.9922V23.4141H51.6172C48.8203 23.4453 46.6328 23.9609 45.0547 24.9609C43.4766 25.9453 42.6875 27.3047 42.6875 29.0391C42.6875 30.4609 43.2109 31.6406 44.2578 32.5781C45.3203 33.5156 46.6953 33.9844 48.3828 33.9844ZM72.9453 23.2266L69.7344 26.3203V36H66.9219V0H69.7344V23.0391L72.3828 20.1797L82.0859 10.6406H85.625L74.8672 21.3281L86.5625 36H83.2109L72.9453 23.2266ZM93.5938 36H90.7812V10.6406H93.5938V36ZM90.2891 3.30469C90.2891 2.77344 90.4609 2.32812 90.8047 1.96875C91.1484 1.59375 91.6172 1.40625 92.2109 1.40625C92.8047 1.40625 93.2734 1.59375 93.6172 1.96875C93.9766 2.32812 94.1562 2.77344 94.1562 3.30469C94.1562 3.83594 93.9766 4.28125 93.6172 4.64062C93.2734 5 92.8047 5.17969 92.2109 5.17969C91.6172 5.17969 91.1484 5 90.8047 4.64062C90.4609 4.28125 90.2891 3.83594 90.2891 3.30469ZM103.906 10.6406L104 14.9766C104.953 13.4141 106.141 12.2266 107.562 11.4141C108.984 10.5859 110.555 10.1719 112.273 10.1719C114.992 10.1719 117.016 10.9375 118.344 12.4688C119.672 14 120.344 16.2969 120.359 19.3594V36H117.57V19.3359C117.555 17.0703 117.07 15.3828 116.117 14.2734C115.18 13.1641 113.672 12.6094 111.594 12.6094C109.859 12.6094 108.32 13.1562 106.977 14.25C105.648 15.3281 104.664 16.7891 104.023 18.6328V36H101.234V10.6406H103.906ZM126.5 23.0859C126.5 19.1172 127.375 15.9766 129.125 13.6641C130.891 11.3359 133.281 10.1719 136.297 10.1719C139.75 10.1719 142.375 11.5469 144.172 14.2969L144.312 10.6406H146.938V35.4844C146.938 38.75 146.023 41.3359 144.195 43.2422C142.367 45.1484 139.891 46.1016 136.766 46.1016C135 46.1016 133.312 45.7031 131.703 44.9062C130.109 44.125 128.852 43.0781 127.93 41.7656L129.5 40.0781C131.484 42.5156 133.844 43.7344 136.578 43.7344C138.922 43.7344 140.75 43.0391 142.062 41.6484C143.375 40.2734 144.055 38.3594 144.102 35.9062V32.7188C142.305 35.2188 139.688 36.4688 136.25 36.4688C133.312 36.4688 130.953 35.2969 129.172 32.9531C127.391 30.6094 126.5 27.4453 126.5 23.4609V23.0859ZM129.336 23.5781C129.336 26.8125 129.984 29.3672 131.281 31.2422C132.578 33.1016 134.406 34.0312 136.766 34.0312C140.219 34.0312 142.664 32.4844 144.102 29.3906V17.6016C143.445 15.9766 142.5 14.7422 141.266 13.8984C140.031 13.0391 138.547 12.6094 136.812 12.6094C134.453 12.6094 132.617 13.5391 131.305 15.3984C129.992 17.2422 129.336 19.9688 129.336 23.5781ZM170.094 36H167.211V1.875H170.094V36ZM181.391 10.6406L181.484 14.9766C182.438 13.4141 183.625 12.2266 185.047 11.4141C186.469 10.5859 188.039 10.1719 189.758 10.1719C192.477 10.1719 194.5 10.9375 195.828 12.4688C197.156 14 197.828 16.2969 197.844 19.3594V36H195.055V19.3359C195.039 17.0703 194.555 15.3828 193.602 14.2734C192.664 13.1641 191.156 12.6094 189.078 12.6094C187.344 12.6094 185.805 13.1562 184.461 14.25C183.133 15.3281 182.148 16.7891 181.508 18.6328V36H178.719V10.6406H181.391ZM213.008 32.1328L220.719 10.6406H223.602L214.133 36H211.859L202.344 10.6406H205.227L213.008 32.1328ZM226.297 22.9453C226.297 20.5078 226.766 18.3125 227.703 16.3594C228.656 14.4062 229.992 12.8906 231.711 11.8125C233.445 10.7188 235.406 10.1719 237.594 10.1719C240.969 10.1719 243.703 11.3594 245.797 13.7344C247.891 16.0938 248.938 19.2266 248.938 23.1328V23.7188C248.938 26.1719 248.461 28.3828 247.508 30.3516C246.57 32.3047 245.242 33.8125 243.523 34.875C241.805 35.9375 239.844 36.4688 237.641 36.4688C234.281 36.4688 231.547 35.2891 229.438 32.9297C227.344 30.5547 226.297 27.4141 226.297 23.5078V22.9453ZM229.109 23.7188C229.109 26.75 229.891 29.2422 231.453 31.1953C233.031 33.1328 235.094 34.1016 237.641 34.1016C240.172 34.1016 242.219 33.1328 243.781 31.1953C245.359 29.2422 246.148 26.6719 246.148 23.4844V22.9453C246.148 21.0078 245.789 19.2344 245.07 17.625C244.352 16.0156 243.344 14.7734 242.047 13.8984C240.75 13.0078 239.266 12.5625 237.594 12.5625C235.094 12.5625 233.055 13.5469 231.477 15.5156C229.898 17.4688 229.109 20.0312 229.109 23.2031V23.7188ZM257.891 36H255.078V10.6406H257.891V36ZM254.586 3.30469C254.586 2.77344 254.758 2.32812 255.102 1.96875C255.445 1.59375 255.914 1.40625 256.508 1.40625C257.102 1.40625 257.57 1.59375 257.914 1.96875C258.273 2.32812 258.453 2.77344 258.453 3.30469C258.453 3.83594 258.273 4.28125 257.914 4.64062C257.57 5 257.102 5.17969 256.508 5.17969C255.914 5.17969 255.445 5 255.102 4.64062C254.758 4.28125 254.586 3.83594 254.586 3.30469ZM274.906 34.1016C276.859 34.1016 278.492 33.5547 279.805 32.4609C281.133 31.3516 281.852 29.9219 281.961 28.1719H284.656C284.578 29.7188 284.094 31.1328 283.203 32.4141C282.312 33.6797 281.125 34.6719 279.641 35.3906C278.172 36.1094 276.594 36.4688 274.906 36.4688C271.578 36.4688 268.938 35.3125 266.984 33C265.047 30.6875 264.078 27.5781 264.078 23.6719V22.8281C264.078 20.3281 264.516 18.1172 265.391 16.1953C266.266 14.2734 267.516 12.7891 269.141 11.7422C270.781 10.6953 272.695 10.1719 274.883 10.1719C277.664 10.1719 279.953 11 281.75 12.6562C283.562 14.3125 284.531 16.4922 284.656 19.1953H281.961C281.836 17.2109 281.117 15.6094 279.805 14.3906C278.508 13.1719 276.867 12.5625 274.883 12.5625C272.352 12.5625 270.383 13.4766 268.977 15.3047C267.586 17.1328 266.891 19.6953 266.891 22.9922V23.8125C266.891 27.0469 267.586 29.5703 268.977 31.3828C270.383 33.1953 272.359 34.1016 274.906 34.1016ZM300.102 36.4688C297.945 36.4688 295.992 35.9375 294.242 34.875C292.508 33.8125 291.156 32.3359 290.188 30.4453C289.219 28.5391 288.734 26.4062 288.734 24.0469V23.0391C288.734 20.6016 289.203 18.4062 290.141 16.4531C291.094 14.5 292.414 12.9688 294.102 11.8594C295.789 10.7344 297.617 10.1719 299.586 10.1719C302.664 10.1719 305.102 11.2266 306.898 13.3359C308.711 15.4297 309.617 18.2969 309.617 21.9375V23.5078H291.523V24.0469C291.523 26.9219 292.344 29.3203 293.984 31.2422C295.641 33.1484 297.719 34.1016 300.219 34.1016C301.719 34.1016 303.039 33.8281 304.18 33.2812C305.336 32.7344 306.383 31.8594 307.32 30.6562L309.078 31.9922C307.016 34.9766 304.023 36.4688 300.102 36.4688ZM299.586 12.5625C297.477 12.5625 295.695 13.3359 294.242 14.8828C292.805 16.4297 291.93 18.5078 291.617 21.1172H306.828V20.8125C306.75 18.375 306.055 16.3906 304.742 14.8594C303.43 13.3281 301.711 12.5625 299.586 12.5625ZM330.266 29.5547C330.266 28.1641 329.703 27.0469 328.578 26.2031C327.469 25.3594 325.789 24.7031 323.539 24.2344C321.289 23.75 319.539 23.2031 318.289 22.5938C317.055 21.9688 316.133 21.2109 315.523 20.3203C314.93 19.4297 314.633 18.3516 314.633 17.0859C314.633 15.0859 315.469 13.4375 317.141 12.1406C318.812 10.8281 320.953 10.1719 323.562 10.1719C326.391 10.1719 328.656 10.875 330.359 12.2812C332.078 13.6719 332.938 15.4922 332.938 17.7422H330.125C330.125 16.2578 329.5 15.0234 328.25 14.0391C327.016 13.0547 325.453 12.5625 323.562 12.5625C321.719 12.5625 320.234 12.9766 319.109 13.8047C318 14.6172 317.445 15.6797 317.445 16.9922C317.445 18.2578 317.906 19.2422 318.828 19.9453C319.766 20.6328 321.461 21.2656 323.914 21.8438C326.383 22.4219 328.227 23.0391 329.445 23.6953C330.68 24.3516 331.594 25.1406 332.188 26.0625C332.781 26.9844 333.078 28.1016 333.078 29.4141C333.078 31.5547 332.211 33.2656 330.477 34.5469C328.758 35.8281 326.508 36.4688 323.727 36.4688C320.773 36.4688 318.375 35.7578 316.531 34.3359C314.703 32.8984 313.789 31.0859 313.789 28.8984H316.602C316.711 30.5391 317.398 31.8203 318.664 32.7422C319.945 33.6484 321.633 34.1016 323.727 34.1016C325.68 34.1016 327.258 33.6719 328.461 32.8125C329.664 31.9531 330.266 30.8672 330.266 29.5547ZM357.148 30.1641L357.57 32.3438L358.133 30.0469L364.227 10.6406H366.617L372.641 29.8828L373.297 32.5547L373.836 30.0938L379.039 10.6406H381.945L374.562 36H372.172L365.656 15.8906L365.352 14.5078L365.047 15.9141L358.648 36H356.258L348.898 10.6406H351.781L357.148 30.1641ZM403.273 36C402.992 35.2031 402.812 34.0234 402.734 32.4609C401.75 33.7422 400.492 34.7344 398.961 35.4375C397.445 36.125 395.836 36.4688 394.133 36.4688C391.695 36.4688 389.719 35.7891 388.203 34.4297C386.703 33.0703 385.953 31.3516 385.953 29.2734C385.953 26.8047 386.977 24.8516 389.023 23.4141C391.086 21.9766 393.953 21.2578 397.625 21.2578H402.711V18.375C402.711 16.5625 402.148 15.1406 401.023 14.1094C399.914 13.0625 398.289 12.5391 396.148 12.5391C394.195 12.5391 392.578 13.0391 391.297 14.0391C390.016 15.0391 389.375 16.2422 389.375 17.6484L386.562 17.625C386.562 15.6094 387.5 13.8672 389.375 12.3984C391.25 10.9141 393.555 10.1719 396.289 10.1719C399.117 10.1719 401.344 10.8828 402.969 12.3047C404.609 13.7109 405.453 15.6797 405.5 18.2109V30.2109C405.5 32.6641 405.758 34.5 406.273 35.7188V36H403.273ZM394.461 33.9844C396.336 33.9844 398.008 33.5312 399.477 32.625C400.961 31.7188 402.039 30.5078 402.711 28.9922V23.4141H397.695C394.898 23.4453 392.711 23.9609 391.133 24.9609C389.555 25.9453 388.766 27.3047 388.766 29.0391C388.766 30.4609 389.289 31.6406 390.336 32.5781C391.398 33.5156 392.773 33.9844 394.461 33.9844ZM428.188 29.5547C428.188 28.1641 427.625 27.0469 426.5 26.2031C425.391 25.3594 423.711 24.7031 421.461 24.2344C419.211 23.75 417.461 23.2031 416.211 22.5938C414.977 21.9688 414.055 21.2109 413.445 20.3203C412.852 19.4297 412.555 18.3516 412.555 17.0859C412.555 15.0859 413.391 13.4375 415.062 12.1406C416.734 10.8281 418.875 10.1719 421.484 10.1719C424.312 10.1719 426.578 10.875 428.281 12.2812C430 13.6719 430.859 15.4922 430.859 17.7422H428.047C428.047 16.2578 427.422 15.0234 426.172 14.0391C424.938 13.0547 423.375 12.5625 421.484 12.5625C419.641 12.5625 418.156 12.9766 417.031 13.8047C415.922 14.6172 415.367 15.6797 415.367 16.9922C415.367 18.2578 415.828 19.2422 416.75 19.9453C417.688 20.6328 419.383 21.2656 421.836 21.8438C424.305 22.4219 426.148 23.0391 427.367 23.6953C428.602 24.3516 429.516 25.1406 430.109 26.0625C430.703 26.9844 431 28.1016 431 29.4141C431 31.5547 430.133 33.2656 428.398 34.5469C426.68 35.8281 424.43 36.4688 421.648 36.4688C418.695 36.4688 416.297 35.7578 414.453 34.3359C412.625 32.8984 411.711 31.0859 411.711 28.8984H414.523C414.633 30.5391 415.32 31.8203 416.586 32.7422C417.867 33.6484 419.555 34.1016 421.648 34.1016C423.602 34.1016 425.18 33.6719 426.383 32.8125C427.586 31.9531 428.188 30.8672 428.188 29.5547ZM25.7188 92H22.8359L3.21875 62.7969V92H0.3125V57.875H3.21875L22.8594 87.1016V57.875H25.7188V92ZM43.5547 92.4688C41.3984 92.4688 39.4453 91.9375 37.6953 90.875C35.9609 89.8125 34.6094 88.3359 33.6406 86.4453C32.6719 84.5391 32.1875 82.4062 32.1875 80.0469V79.0391C32.1875 76.6016 32.6562 74.4062 33.5938 72.4531C34.5469 70.5 35.8672 68.9688 37.5547 67.8594C39.2422 66.7344 41.0703 66.1719 43.0391 66.1719C46.1172 66.1719 48.5547 67.2266 50.3516 69.3359C52.1641 71.4297 53.0703 74.2969 53.0703 77.9375V79.5078H34.9766V80.0469C34.9766 82.9219 35.7969 85.3203 37.4375 87.2422C39.0938 89.1484 41.1719 90.1016 43.6719 90.1016C45.1719 90.1016 46.4922 89.8281 47.6328 89.2812C48.7891 88.7344 49.8359 87.8594 50.7734 86.6562L52.5312 87.9922C50.4688 90.9766 47.4766 92.4688 43.5547 92.4688ZM43.0391 68.5625C40.9297 68.5625 39.1484 69.3359 37.6953 70.8828C36.2578 72.4297 35.3828 74.5078 35.0703 77.1172H50.2812V76.8125C50.2031 74.375 49.5078 72.3906 48.1953 70.8594C46.8828 69.3281 45.1641 68.5625 43.0391 68.5625ZM66.1016 88.1328L73.8125 66.6406H76.6953L67.2266 92H64.9531L55.4375 66.6406H58.3203L66.1016 88.1328ZM90.8047 92.4688C88.6484 92.4688 86.6953 91.9375 84.9453 90.875C83.2109 89.8125 81.8594 88.3359 80.8906 86.4453C79.9219 84.5391 79.4375 82.4062 79.4375 80.0469V79.0391C79.4375 76.6016 79.9062 74.4062 80.8438 72.4531C81.7969 70.5 83.1172 68.9688 84.8047 67.8594C86.4922 66.7344 88.3203 66.1719 90.2891 66.1719C93.3672 66.1719 95.8047 67.2266 97.6016 69.3359C99.4141 71.4297 100.32 74.2969 100.32 77.9375V79.5078H82.2266V80.0469C82.2266 82.9219 83.0469 85.3203 84.6875 87.2422C86.3438 89.1484 88.4219 90.1016 90.9219 90.1016C92.4219 90.1016 93.7422 89.8281 94.8828 89.2812C96.0391 88.7344 97.0859 87.8594 98.0234 86.6562L99.7812 87.9922C97.7188 90.9766 94.7266 92.4688 90.8047 92.4688ZM90.2891 68.5625C88.1797 68.5625 86.3984 69.3359 84.9453 70.8828C83.5078 72.4297 82.6328 74.5078 82.3203 77.1172H97.5312V76.8125C97.4531 74.375 96.7578 72.3906 95.4453 70.8594C94.1328 69.3281 92.4141 68.5625 90.2891 68.5625ZM117.5 69.0312C116.906 68.9219 116.273 68.8672 115.602 68.8672C113.852 68.8672 112.367 69.3594 111.148 70.3438C109.945 71.3125 109.086 72.7266 108.57 74.5859V92H105.781V66.6406H108.523L108.57 70.6719C110.055 67.6719 112.438 66.1719 115.719 66.1719C116.5 66.1719 117.117 66.2734 117.57 66.4766L117.5 69.0312ZM143.445 92.4688C141.289 92.4688 139.336 91.9375 137.586 90.875C135.852 89.8125 134.5 88.3359 133.531 86.4453C132.562 84.5391 132.078 82.4062 132.078 80.0469V79.0391C132.078 76.6016 132.547 74.4062 133.484 72.4531C134.438 70.5 135.758 68.9688 137.445 67.8594C139.133 66.7344 140.961 66.1719 142.93 66.1719C146.008 66.1719 148.445 67.2266 150.242 69.3359C152.055 71.4297 152.961 74.2969 152.961 77.9375V79.5078H134.867V80.0469C134.867 82.9219 135.688 85.3203 137.328 87.2422C138.984 89.1484 141.062 90.1016 143.562 90.1016C145.062 90.1016 146.383 89.8281 147.523 89.2812C148.68 88.7344 149.727 87.8594 150.664 86.6562L152.422 87.9922C150.359 90.9766 147.367 92.4688 143.445 92.4688ZM142.93 68.5625C140.82 68.5625 139.039 69.3359 137.586 70.8828C136.148 72.4297 135.273 74.5078 134.961 77.1172H150.172V76.8125C150.094 74.375 149.398 72.3906 148.086 70.8594C146.773 69.3281 145.055 68.5625 142.93 68.5625ZM174.43 92C174.148 91.2031 173.969 90.0234 173.891 88.4609C172.906 89.7422 171.648 90.7344 170.117 91.4375C168.602 92.125 166.992 92.4688 165.289 92.4688C162.852 92.4688 160.875 91.7891 159.359 90.4297C157.859 89.0703 157.109 87.3516 157.109 85.2734C157.109 82.8047 158.133 80.8516 160.18 79.4141C162.242 77.9766 165.109 77.2578 168.781 77.2578H173.867V74.375C173.867 72.5625 173.305 71.1406 172.18 70.1094C171.07 69.0625 169.445 68.5391 167.305 68.5391C165.352 68.5391 163.734 69.0391 162.453 70.0391C161.172 71.0391 160.531 72.2422 160.531 73.6484L157.719 73.625C157.719 71.6094 158.656 69.8672 160.531 68.3984C162.406 66.9141 164.711 66.1719 167.445 66.1719C170.273 66.1719 172.5 66.8828 174.125 68.3047C175.766 69.7109 176.609 71.6797 176.656 74.2109V86.2109C176.656 88.6641 176.914 90.5 177.43 91.7188V92H174.43ZM165.617 89.9844C167.492 89.9844 169.164 89.5312 170.633 88.625C172.117 87.7188 173.195 86.5078 173.867 84.9922V79.4141H168.852C166.055 79.4453 163.867 79.9609 162.289 80.9609C160.711 81.9453 159.922 83.3047 159.922 85.0391C159.922 86.4609 160.445 87.6406 161.492 88.5781C162.555 89.5156 163.93 89.9844 165.617 89.9844ZM199.344 85.5547C199.344 84.1641 198.781 83.0469 197.656 82.2031C196.547 81.3594 194.867 80.7031 192.617 80.2344C190.367 79.75 188.617 79.2031 187.367 78.5938C186.133 77.9688 185.211 77.2109 184.602 76.3203C184.008 75.4297 183.711 74.3516 183.711 73.0859C183.711 71.0859 184.547 69.4375 186.219 68.1406C187.891 66.8281 190.031 66.1719 192.641 66.1719C195.469 66.1719 197.734 66.875 199.438 68.2812C201.156 69.6719 202.016 71.4922 202.016 73.7422H199.203C199.203 72.2578 198.578 71.0234 197.328 70.0391C196.094 69.0547 194.531 68.5625 192.641 68.5625C190.797 68.5625 189.312 68.9766 188.188 69.8047C187.078 70.6172 186.523 71.6797 186.523 72.9922C186.523 74.2578 186.984 75.2422 187.906 75.9453C188.844 76.6328 190.539 77.2656 192.992 77.8438C195.461 78.4219 197.305 79.0391 198.523 79.6953C199.758 80.3516 200.672 81.1406 201.266 82.0625C201.859 82.9844 202.156 84.1016 202.156 85.4141C202.156 87.5547 201.289 89.2656 199.555 90.5469C197.836 91.8281 195.586 92.4688 192.805 92.4688C189.852 92.4688 187.453 91.7578 185.609 90.3359C183.781 88.8984 182.867 87.0859 182.867 84.8984H185.68C185.789 86.5391 186.477 87.8203 187.742 88.7422C189.023 89.6484 190.711 90.1016 192.805 90.1016C194.758 90.1016 196.336 89.6719 197.539 88.8125C198.742 87.9531 199.344 86.8672 199.344 85.5547ZM211.625 92H208.812V66.6406H211.625V92ZM208.32 59.3047C208.32 58.7734 208.492 58.3281 208.836 57.9688C209.18 57.5938 209.648 57.4062 210.242 57.4062C210.836 57.4062 211.305 57.5938 211.648 57.9688C212.008 58.3281 212.188 58.7734 212.188 59.3047C212.188 59.8359 212.008 60.2812 211.648 60.6406C211.305 61 210.836 61.1797 210.242 61.1797C209.648 61.1797 209.18 61 208.836 60.6406C208.492 60.2812 208.32 59.8359 208.32 59.3047ZM229.086 92.4688C226.93 92.4688 224.977 91.9375 223.227 90.875C221.492 89.8125 220.141 88.3359 219.172 86.4453C218.203 84.5391 217.719 82.4062 217.719 80.0469V79.0391C217.719 76.6016 218.188 74.4062 219.125 72.4531C220.078 70.5 221.398 68.9688 223.086 67.8594C224.773 66.7344 226.602 66.1719 228.57 66.1719C231.648 66.1719 234.086 67.2266 235.883 69.3359C237.695 71.4297 238.602 74.2969 238.602 77.9375V79.5078H220.508V80.0469C220.508 82.9219 221.328 85.3203 222.969 87.2422C224.625 89.1484 226.703 90.1016 229.203 90.1016C230.703 90.1016 232.023 89.8281 233.164 89.2812C234.32 88.7344 235.367 87.8594 236.305 86.6562L238.062 87.9922C236 90.9766 233.008 92.4688 229.086 92.4688ZM228.57 68.5625C226.461 68.5625 224.68 69.3359 223.227 70.8828C221.789 72.4297 220.914 74.5078 220.602 77.1172H235.812V76.8125C235.734 74.375 235.039 72.3906 233.727 70.8594C232.414 69.3281 230.695 68.5625 228.57 68.5625ZM255.781 69.0312C255.188 68.9219 254.555 68.8672 253.883 68.8672C252.133 68.8672 250.648 69.3594 249.43 70.3438C248.227 71.3125 247.367 72.7266 246.852 74.5859V92H244.062V66.6406H246.805L246.852 70.6719C248.336 67.6719 250.719 66.1719 254 66.1719C254.781 66.1719 255.398 66.2734 255.852 66.4766L255.781 69.0312ZM256.742 98.375L255.078 97.1562C256.5 95.25 257.234 93.2734 257.281 91.2266V87.5938H260.023V90.5234C260.023 93.7734 258.93 96.3906 256.742 98.375ZM282.547 60.1484V66.6406H287.797V68.9375H282.547V85.8359C282.547 87.2422 282.797 88.2891 283.297 88.9766C283.812 89.6641 284.664 90.0078 285.852 90.0078C286.32 90.0078 287.078 89.9297 288.125 89.7734L288.242 92.0703C287.508 92.3359 286.508 92.4688 285.242 92.4688C283.32 92.4688 281.922 91.9141 281.047 90.8047C280.172 89.6797 279.734 88.0312 279.734 85.8594V68.9375H275.07V66.6406H279.734V60.1484H282.547ZM296.398 70.9297C297.32 69.4141 298.5 68.2422 299.938 67.4141C301.375 66.5859 302.945 66.1719 304.648 66.1719C307.367 66.1719 309.391 66.9375 310.719 68.4688C312.047 70 312.719 72.2969 312.734 75.3594V92H309.945V75.3359C309.93 73.0703 309.445 71.3828 308.492 70.2734C307.555 69.1641 306.047 68.6094 303.969 68.6094C302.234 68.6094 300.695 69.1562 299.352 70.25C298.023 71.3281 297.039 72.7891 296.398 74.6328V92H293.609V56H296.398V70.9297ZM323.094 92H320.281V66.6406H323.094V92ZM319.789 59.3047C319.789 58.7734 319.961 58.3281 320.305 57.9688C320.648 57.5938 321.117 57.4062 321.711 57.4062C322.305 57.4062 322.773 57.5938 323.117 57.9688C323.477 58.3281 323.656 58.7734 323.656 59.3047C323.656 59.8359 323.477 60.2812 323.117 60.6406C322.773 61 322.305 61.1797 321.711 61.1797C321.117 61.1797 320.648 61 320.305 60.6406C319.961 60.2812 319.789 59.8359 319.789 59.3047ZM345.922 85.5547C345.922 84.1641 345.359 83.0469 344.234 82.2031C343.125 81.3594 341.445 80.7031 339.195 80.2344C336.945 79.75 335.195 79.2031 333.945 78.5938C332.711 77.9688 331.789 77.2109 331.18 76.3203C330.586 75.4297 330.289 74.3516 330.289 73.0859C330.289 71.0859 331.125 69.4375 332.797 68.1406C334.469 66.8281 336.609 66.1719 339.219 66.1719C342.047 66.1719 344.312 66.875 346.016 68.2812C347.734 69.6719 348.594 71.4922 348.594 73.7422H345.781C345.781 72.2578 345.156 71.0234 343.906 70.0391C342.672 69.0547 341.109 68.5625 339.219 68.5625C337.375 68.5625 335.891 68.9766 334.766 69.8047C333.656 70.6172 333.102 71.6797 333.102 72.9922C333.102 74.2578 333.562 75.2422 334.484 75.9453C335.422 76.6328 337.117 77.2656 339.57 77.8438C342.039 78.4219 343.883 79.0391 345.102 79.6953C346.336 80.3516 347.25 81.1406 347.844 82.0625C348.438 82.9844 348.734 84.1016 348.734 85.4141C348.734 87.5547 347.867 89.2656 346.133 90.5469C344.414 91.8281 342.164 92.4688 339.383 92.4688C336.43 92.4688 334.031 91.7578 332.188 90.3359C330.359 88.8984 329.445 87.0859 329.445 84.8984H332.258C332.367 86.5391 333.055 87.8203 334.32 88.7422C335.602 89.6484 337.289 90.1016 339.383 90.1016C341.336 90.1016 342.914 89.6719 344.117 88.8125C345.32 87.9531 345.922 86.8672 345.922 85.5547ZM387.148 79.5781C387.148 83.5312 386.273 86.6719 384.523 89C382.773 91.3125 380.422 92.4688 377.469 92.4688C373.938 92.4688 371.266 91.1562 369.453 88.5312L369.336 92H366.711V56H369.5V70.3203C371.281 67.5547 373.922 66.1719 377.422 66.1719C380.422 66.1719 382.789 67.3203 384.523 69.6172C386.273 71.8984 387.148 75.0781 387.148 79.1562V79.5781ZM384.336 79.0859C384.336 75.7422 383.688 73.1641 382.391 71.3516C381.094 69.5234 379.266 68.6094 376.906 68.6094C375.109 68.6094 373.586 69.0547 372.336 69.9453C371.086 70.8203 370.141 72.1094 369.5 73.8125V85.25C370.906 88.4375 373.391 90.0312 376.953 90.0312C379.266 90.0312 381.07 89.1172 382.367 87.2891C383.68 85.4609 384.336 82.7266 384.336 79.0859ZM403.18 92.4688C401.023 92.4688 399.07 91.9375 397.32 90.875C395.586 89.8125 394.234 88.3359 393.266 86.4453C392.297 84.5391 391.812 82.4062 391.812 80.0469V79.0391C391.812 76.6016 392.281 74.4062 393.219 72.4531C394.172 70.5 395.492 68.9688 397.18 67.8594C398.867 66.7344 400.695 66.1719 402.664 66.1719C405.742 66.1719 408.18 67.2266 409.977 69.3359C411.789 71.4297 412.695 74.2969 412.695 77.9375V79.5078H394.602V80.0469C394.602 82.9219 395.422 85.3203 397.062 87.2422C398.719 89.1484 400.797 90.1016 403.297 90.1016C404.797 90.1016 406.117 89.8281 407.258 89.2812C408.414 88.7344 409.461 87.8594 410.398 86.6562L412.156 87.9922C410.094 90.9766 407.102 92.4688 403.18 92.4688ZM402.664 68.5625C400.555 68.5625 398.773 69.3359 397.32 70.8828C395.883 72.4297 395.008 74.5078 394.695 77.1172H409.906V76.8125C409.828 74.375 409.133 72.3906 407.82 70.8594C406.508 69.3281 404.789 68.5625 402.664 68.5625ZM420.172 92V68.9375H415.977V66.6406H420.172V63.5703C420.172 60.9766 420.828 58.9844 422.141 57.5938C423.469 56.2031 425.312 55.5078 427.672 55.5078C428.734 55.5078 429.727 55.6406 430.648 55.9062L430.438 58.25C429.656 58.0625 428.805 57.9688 427.883 57.9688C426.336 57.9688 425.133 58.4531 424.273 59.4219C423.414 60.375 422.984 61.7344 422.984 63.5V66.6406H429.031V68.9375H422.984V92H420.172ZM432.5 78.9453C432.5 76.5078 432.969 74.3125 433.906 72.3594C434.859 70.4062 436.195 68.8906 437.914 67.8125C439.648 66.7188 441.609 66.1719 443.797 66.1719C447.172 66.1719 449.906 67.3594 452 69.7344C454.094 72.0938 455.141 75.2266 455.141 79.1328V79.7188C455.141 82.1719 454.664 84.3828 453.711 86.3516C452.773 88.3047 451.445 89.8125 449.727 90.875C448.008 91.9375 446.047 92.4688 443.844 92.4688C440.484 92.4688 437.75 91.2891 435.641 88.9297C433.547 86.5547 432.5 83.4141 432.5 79.5078V78.9453ZM435.312 79.7188C435.312 82.75 436.094 85.2422 437.656 87.1953C439.234 89.1328 441.297 90.1016 443.844 90.1016C446.375 90.1016 448.422 89.1328 449.984 87.1953C451.562 85.2422 452.352 82.6719 452.352 79.4844V78.9453C452.352 77.0078 451.992 75.2344 451.273 73.625C450.555 72.0156 449.547 70.7734 448.25 69.8984C446.953 69.0078 445.469 68.5625 443.797 68.5625C441.297 68.5625 439.258 69.5469 437.68 71.5156C436.102 73.4688 435.312 76.0312 435.312 79.2031V79.7188ZM472.672 69.0312C472.078 68.9219 471.445 68.8672 470.773 68.8672C469.023 68.8672 467.539 69.3594 466.32 70.3438C465.117 71.3125 464.258 72.7266 463.742 74.5859V92H460.953V66.6406H463.695L463.742 70.6719C465.227 67.6719 467.609 66.1719 470.891 66.1719C471.672 66.1719 472.289 66.2734 472.742 66.4766L472.672 69.0312ZM486.477 92.4688C484.32 92.4688 482.367 91.9375 480.617 90.875C478.883 89.8125 477.531 88.3359 476.562 86.4453C475.594 84.5391 475.109 82.4062 475.109 80.0469V79.0391C475.109 76.6016 475.578 74.4062 476.516 72.4531C477.469 70.5 478.789 68.9688 480.477 67.8594C482.164 66.7344 483.992 66.1719 485.961 66.1719C489.039 66.1719 491.477 67.2266 493.273 69.3359C495.086 71.4297 495.992 74.2969 495.992 77.9375V79.5078H477.898V80.0469C477.898 82.9219 478.719 85.3203 480.359 87.2422C482.016 89.1484 484.094 90.1016 486.594 90.1016C488.094 90.1016 489.414 89.8281 490.555 89.2812C491.711 88.7344 492.758 87.8594 493.695 86.6562L495.453 87.9922C493.391 90.9766 490.398 92.4688 486.477 92.4688ZM485.961 68.5625C483.852 68.5625 482.07 69.3359 480.617 70.8828C479.18 72.4297 478.305 74.5078 477.992 77.1172H493.203V76.8125C493.125 74.375 492.43 72.3906 491.117 70.8594C489.805 69.3281 488.086 68.5625 485.961 68.5625ZM504.453 82.5078H501.852L501.711 57.875H504.617L504.453 82.5078ZM501.383 90.3594C501.383 89.8281 501.555 89.3828 501.898 89.0234C502.242 88.6484 502.711 88.4609 503.305 88.4609C503.898 88.4609 504.367 88.6484 504.711 89.0234C505.07 89.3828 505.25 89.8281 505.25 90.3594C505.25 90.875 505.07 91.3125 504.711 91.6719C504.367 92.0156 503.898 92.1875 503.305 92.1875C502.711 92.1875 502.242 92.0156 501.898 91.6719C501.555 91.3125 501.383 90.875 501.383 90.3594Z" fill="#306090"/>
</svg>
